<svg width="25" height="25" viewBox="0 0 25 25" fill="none" xmlns="http://www.w3.org/2000/svg">
<rect width="25" height="25" rx="12.5" fill="#253920"/>
<path d="M16.772 6.73047C17.5629 6.76791 18.2354 7.44045 18.2728 8.23126L18.6563 16.3291C18.6937 17.1199 18.082 17.7317 17.2912 17.6942C16.5004 17.6568 15.8278 16.9842 15.7904 16.1934L15.5705 11.5498L9.22117 17.8992C8.68779 18.4325 7.7831 18.3897 7.1967 17.8033C6.6103 17.2169 6.56746 16.3122 7.10084 15.7788L13.4502 9.42948L8.80656 9.20961C8.01576 9.17217 7.34321 8.49962 7.30577 7.70881C7.26832 6.91801 7.88006 6.30628 8.67086 6.34372L16.7687 6.72715L16.772 6.73047Z" fill="#24CF05"/>
</svg>
