<svg width="15" height="15" viewBox="0 0 15 15" fill="none" xmlns="http://www.w3.org/2000/svg">
<path d="M7.5 15C3.35742 15 0 11.6426 0 7.5C0 3.35742 3.35742 0 7.5 0C11.6426 0 15 3.35742 15 7.5C15 11.6426 11.6426 15 7.5 15ZM10.957 4.26855C10.6436 4.04004 10.2041 4.11035 9.97559 4.42383L6.47754 9.23438L4.95117 7.70801C4.67578 7.43262 4.23047 7.43262 3.95801 7.70801C3.68555 7.9834 3.68262 8.42871 3.95801 8.70117L6.06738 10.8105C6.21387 10.957 6.41309 11.0303 6.61816 11.0156C6.82324 11.001 7.01074 10.8955 7.13086 10.7285L11.1123 5.25C11.3408 4.93652 11.2705 4.49707 10.957 4.26855Z" fill="#5C5C5C"/>
</svg>
