<svg width="18" height="18" viewBox="0 0 18 18" fill="none" xmlns="http://www.w3.org/2000/svg">
<path d="M14.0273 13.507C13.2504 12.157 11.7914 11.25 10.125 11.25H7.875C6.20859 11.25 4.74961 12.157 3.97266 13.507C5.21016 14.8852 7.00313 15.75 9 15.75C10.9969 15.75 12.7898 14.8816 14.0273 13.507ZM0 9C0 4.02891 4.02891 0 9 0C13.9711 0 18 4.02891 18 9C18 13.9711 13.9711 18 9 18C4.02891 18 0 13.9711 0 9ZM9 9.5625C10.3992 9.5625 11.5312 8.43047 11.5312 7.03125C11.5312 5.63203 10.3992 4.5 9 4.5C7.60078 4.5 6.46875 5.63203 6.46875 7.03125C6.46875 8.43047 7.60078 9.5625 9 9.5625Z" fill="#BEBEBE"/>
</svg>
