<svg width="18" height="18" viewBox="0 0 18 18" fill="none" xmlns="http://www.w3.org/2000/svg">
<path d="M9.76478 0.300615C9.33229 -0.100205 8.6642 -0.100205 8.23522 0.300615L0.358842 7.61383C0.0212827 7.93027 -0.0912369 8.41899 0.0775426 8.84793C0.246322 9.27688 0.657722 9.56168 1.12187 9.56168H1.68446V15.7498C1.68446 16.9909 2.69362 18 3.93486 18H14.0616C15.3029 18 16.312 16.9909 16.312 15.7498V9.56168H16.8746C17.3388 9.56168 17.7537 9.27688 17.9225 8.84793C18.0912 8.41899 17.9787 7.92675 17.6412 7.61383L9.76478 0.300615ZM8.43564 11.2493H9.56084C10.4926 11.2493 11.2486 12.0053 11.2486 12.937V16.3123H6.74785V12.937C6.74785 12.0053 7.50384 11.2493 8.43564 11.2493Z" fill="#BEBEBE"/>
</svg>
