<svg width="18" height="18" viewBox="0 0 18 18" fill="none" xmlns="http://www.w3.org/2000/svg">
<path d="M6.83746 0.84375C6.94342 0.354044 7.4061 0 7.94296 0H10.0551C10.5919 0 11.0546 0.354044 11.1606 0.84375L11.6727 3.15993C12.1707 3.35846 12.6369 3.61324 13.0607 3.91434L15.4554 3.16985C15.964 3.01103 16.522 3.20956 16.7905 3.64632L17.8465 5.36029C18.1149 5.79706 18.0196 6.34632 17.6169 6.68051L15.7344 8.2489C15.7662 8.49375 15.7803 8.74522 15.7803 9C15.7803 9.25478 15.7627 9.50625 15.7344 9.7511L17.6205 11.3228C18.0231 11.657 18.1149 12.2096 17.85 12.643L16.794 14.357C16.5256 14.7904 15.9675 14.9923 15.4589 14.8335L13.0643 14.089C12.6369 14.3901 12.1707 14.6415 11.6762 14.8434L11.1676 17.1562C11.0581 17.6493 10.5954 18 10.0621 18H7.95002C7.41317 18 6.95049 17.646 6.84453 17.1562L6.33593 14.8434C5.83793 14.6449 5.37524 14.3901 4.94788 14.089L2.54263 14.8335C2.03403 14.9923 1.47599 14.7938 1.20756 14.357L0.151514 12.643C-0.116913 12.2063 -0.0215506 11.657 0.38109 11.3228L2.26714 9.7511C2.23535 9.50625 2.22123 9.25478 2.22123 9C2.22123 8.74522 2.23889 8.49375 2.26714 8.2489L0.38109 6.67721C-0.0215506 6.34302 -0.113381 5.79044 0.151514 5.35699L1.20756 3.64302C1.47599 3.20625 2.03403 3.00772 2.54263 3.16654L4.93728 3.91103C5.36465 3.60993 5.83086 3.35846 6.32533 3.15662L6.83746 0.84375ZM8.99901 11.6471C10.5601 11.6404 11.821 10.4526 11.814 8.99007C11.8069 7.52757 10.5389 6.34632 8.97782 6.35294C7.4167 6.35956 6.1558 7.54743 6.16286 9.00993C6.16993 10.4724 7.43789 11.6537 8.99901 11.6471Z" fill="#BEBEBE"/>
</svg>
