<svg width="18" height="18" viewBox="0 0 18 18" fill="none" xmlns="http://www.w3.org/2000/svg">
<path d="M12.9119 14.502C11.8113 15.2895 10.461 15.75 9.00176 15.75C7.54249 15.75 6.19222 15.2895 5.09162 14.502L7.13108 12.4629C7.68666 12.7652 8.32663 12.9375 9.00527 12.9375C9.68392 12.9375 10.3204 12.7652 10.8795 12.4629L12.9189 14.502H12.9119ZM16.1012 14.5301C17.2897 13.0043 18 11.0848 18 9C18 6.91523 17.2932 4.9957 16.1047 3.46992C16.4212 3.03047 16.3825 2.41172 15.9852 2.01797C15.5878 1.62422 14.9725 1.58203 14.5329 1.89844C13.0068 0.710156 11.0869 0 9.00176 0C6.91658 0 4.99668 0.710156 3.4706 1.89844C3.03106 1.58203 2.41219 1.6207 2.01836 2.01797C1.62454 2.41523 1.58234 3.03047 1.89881 3.46992C0.710295 4.9957 0 6.91523 0 9C0 11.0848 0.710295 13.0043 1.89881 14.5301C1.58234 14.9695 1.62102 15.5883 2.01836 15.982C2.41571 16.3758 3.03106 16.418 3.4706 16.1016C4.99668 17.2898 6.91658 18 9.00176 18C11.0869 18 13.0068 17.2898 14.5329 16.1016C14.9725 16.418 15.5913 16.3793 15.9852 15.982C16.379 15.5848 16.4212 14.9695 16.1047 14.5301H16.1012ZM14.5013 12.9094L12.4618 10.8703C12.7642 10.3148 12.9365 9.675 12.9365 8.99648C12.9365 8.31797 12.7642 7.68164 12.4618 7.12266L14.5013 5.08359C15.2924 6.19102 15.7531 7.54102 15.7531 9C15.7531 10.459 15.2924 11.809 14.5048 12.9094H14.5013ZM12.9119 3.49805L10.8724 5.53711C10.3169 5.23477 9.67689 5.0625 8.99824 5.0625C8.31959 5.0625 7.68314 5.23477 7.12405 5.53711L5.08459 3.49805C6.19222 2.71055 7.54249 2.25 9.00176 2.25C10.461 2.25 11.8113 2.71055 12.9119 3.49805ZM5.53819 10.8738L3.49873 12.9129C2.71108 11.809 2.25044 10.459 2.25044 9C2.25044 7.54102 2.71108 6.19102 3.49873 5.09063L5.53819 7.12969C5.23579 7.68516 5.06349 8.325 5.06349 9.00352C5.06349 9.68203 5.23579 10.3184 5.53819 10.8773V10.8738ZM7.31393 9C7.31393 8.06836 8.06993 7.3125 9.00176 7.3125C9.93358 7.3125 10.6896 8.06836 10.6896 9C10.6896 9.93164 9.93358 10.6875 9.00176 10.6875C8.06993 10.6875 7.31393 9.93164 7.31393 9Z" fill="#BEBEBE"/>
</svg>
