<svg width="18" height="18" viewBox="0 0 18 18" fill="none" xmlns="http://www.w3.org/2000/svg">
<path d="M9.55898 0.147656C9.21445 -0.0492188 8.78906 -0.0492188 8.44102 0.147656L0.566016 4.64766C0.217969 4.84805 0 5.2207 0 5.625V16.875C0 17.4973 0.502734 18 1.125 18C1.74727 18 2.25 17.4973 2.25 16.875V6.27891L9 2.42227L15.75 6.27891V16.875C15.75 17.4973 16.2527 18 16.875 18C17.4973 18 18 17.4973 18 16.875V5.625C18 5.2207 17.782 4.84805 17.434 4.64766L9.55898 0.147656ZM9 7.3125C9.77695 7.3125 10.4062 6.6832 10.4062 5.90625C10.4062 5.1293 9.77695 4.5 9 4.5C8.22305 4.5 7.59375 5.1293 7.59375 5.90625C7.59375 6.6832 8.22305 7.3125 9 7.3125ZM8.71875 14.0625H9.28125V17.1562C9.28125 17.6238 9.65742 18 10.125 18C10.5926 18 10.9688 17.6238 10.9688 17.1562V11.0215L11.9145 12.7758C12.1359 13.1871 12.6457 13.3383 13.057 13.1203C13.4684 12.9023 13.6195 12.3891 13.4016 11.9777L12.2344 9.80859C11.591 8.6168 10.35 7.875 9 7.875C7.65 7.875 6.40898 8.6168 5.76914 9.80508L4.60195 11.9742C4.38047 12.3855 4.53516 12.8953 4.94648 13.1168C5.35781 13.3383 5.86758 13.1836 6.08906 12.7723L7.03125 11.0215V17.1562C7.03125 17.6238 7.40742 18 7.875 18C8.34258 18 8.71875 17.6238 8.71875 17.1562V14.0625Z" fill="#BEBEBE"/>
</svg>
