<svg width="18" height="16" viewBox="0 0 18 16" fill="none" xmlns="http://www.w3.org/2000/svg">
<path d="M3.22734 0C2.10586 0 1.15664 0.835714 0.998438 1.96071L0.0210937 8.9C0.0070312 9.00714 0 9.11429 0 9.225V13.7143C0 14.975 1.00898 16 2.25 16H15.75C16.991 16 18 14.975 18 13.7143V9.225C18 9.11786 17.993 9.00714 17.9789 8.9L17.0016 1.96071C16.8434 0.835714 15.8941 0 14.7727 0H3.22734ZM3.22734 2.28571H14.7762L15.7395 9.14286H13.6336C13.2082 9.14286 12.818 9.38572 12.6281 9.775L12.1254 10.7964C11.9355 11.1821 11.5453 11.4286 11.1199 11.4286H6.88711C6.46172 11.4286 6.07148 11.1857 5.88164 10.7964L5.37891 9.775C5.18906 9.38929 4.79883 9.14286 4.37344 9.14286H2.26055L3.22734 2.28571Z" fill="white"/>
</svg>
