<svg width="15" height="15" viewBox="0 0 15 15" fill="none" xmlns="http://www.w3.org/2000/svg">
<path d="M11.7 5.85C11.7 7.14094 11.2809 8.33344 10.575 9.30094L14.1356 12.8644C14.4872 13.2159 14.4872 13.7869 14.1356 14.1384C13.7841 14.49 13.2131 14.49 12.8616 14.1384L9.30094 10.575C8.33344 11.2809 7.14094 11.7 5.85 11.7C2.61844 11.7 0 9.08156 0 5.85C0 2.61844 2.61844 0 5.85 0C9.08156 0 11.7 2.61844 11.7 5.85ZM5.85 9.9C8.08594 9.9 9.9 8.08594 9.9 5.85C9.9 3.61406 8.08594 1.8 5.85 1.8C3.61406 1.8 1.8 3.61406 1.8 5.85C1.8 8.08594 3.61406 9.9 5.85 9.9Z" fill="#7C7C7C"/>
</svg>
