<svg width="15" height="15" viewBox="0 0 15 15" fill="none" xmlns="http://www.w3.org/2000/svg">
<path d="M11.6895 11.2559C11.042 10.1309 9.82617 9.375 8.4375 9.375H6.5625C5.17383 9.375 3.95801 10.1309 3.31055 11.2559C4.3418 12.4043 5.83594 13.125 7.5 13.125C9.16406 13.125 10.6582 12.4014 11.6895 11.2559ZM0 7.5C0 3.35742 3.35742 0 7.5 0C11.6426 0 15 3.35742 15 7.5C15 11.6426 11.6426 15 7.5 15C3.35742 15 0 11.6426 0 7.5ZM7.5 7.96875C8.66602 7.96875 9.60938 7.02539 9.60938 5.85938C9.60938 4.69336 8.66602 3.75 7.5 3.75C6.33398 3.75 5.39062 4.69336 5.39062 5.85938C5.39062 7.02539 6.33398 7.96875 7.5 7.96875Z" fill="#5C5C5C"/>
</svg>
