<svg width="190" height="190" viewBox="0 0 190 190" fill="none" xmlns="http://www.w3.org/2000/svg">
<path d="M95 0C147.467 7.83426e-05 190 42.533 190 95C190 147.467 147.467 190 95 190C42.5329 190 0 147.467 0 95C0 42.5329 42.5329 0 95 0ZM136.829 53.1475C133.966 50.2843 129.316 50.2841 126.452 53.1475L95 84.623L63.5244 53.1709C60.6609 50.3074 56.0109 50.3074 53.1475 53.1709C50.2843 56.0344 50.2841 60.6845 53.1475 63.5479L84.623 95L53.1709 126.476C50.3074 129.339 50.3074 133.989 53.1709 136.853C56.0344 139.716 60.6845 139.716 63.5479 136.853L95 105.377L126.476 136.829C129.339 139.693 133.989 139.693 136.853 136.829C139.716 133.966 139.716 129.316 136.853 126.452L105.377 95L136.829 63.5244C139.693 60.6609 139.693 56.0109 136.829 53.1475Z" fill="#5C5C5C" style="fill:#5C5C5C;fill:color(display-p3 0.3608 0.3608 0.3608);fill-opacity:1;"/>
</svg>
