<svg width="24" height="24" viewBox="0 0 24 24" fill="none" xmlns="http://www.w3.org/2000/svg">
<path d="M12.0009 3C11.1965 3 10.5466 3.67031 10.5466 4.5C10.5466 5.32969 11.1965 6 12.0009 6C12.8054 6 13.4553 5.32969 13.4553 4.5C13.4553 3.67031 12.8054 3 12.0009 3ZM7.6379 4.5C7.6379 2.01562 9.59217 0 12.0009 0C14.4097 0 16.3639 2.01562 16.3639 4.5C16.3639 6.45937 15.1505 8.12813 13.4553 8.74219V20.8312C16.3139 20.1609 18.4636 17.5641 18.5409 14.4328L17.8092 15.0938C17.3547 15.5016 16.6684 15.4547 16.2685 14.9859C15.8686 14.5172 15.9185 13.8094 16.373 13.3969L19.2817 10.7719C19.6907 10.4016 20.3088 10.4016 20.7179 10.7719L23.6266 13.3969C24.081 13.8047 24.1265 14.5172 23.7311 14.9859C23.3357 15.4547 22.6449 15.5016 22.1904 15.0938L21.4541 14.4328C21.3587 19.7344 17.1638 24 12.0009 24C6.83801 24 2.64315 19.7344 2.54771 14.4328L1.81145 15.0984C1.35697 15.5063 0.670703 15.4594 0.27076 14.9906C-0.129184 14.5219 -0.079191 13.8141 0.37529 13.4016L3.28397 10.7766C3.693 10.4062 4.3111 10.4062 4.72013 10.7766L7.62881 13.4016C8.08329 13.8094 8.12874 14.5219 7.73334 14.9906C7.33794 15.4594 6.64713 15.5063 6.19265 15.0984L5.46094 14.4375C5.54274 17.5688 7.69244 20.1656 10.5466 20.8359V8.74688C8.85137 8.12813 7.6379 6.46406 7.6379 4.50469V4.5Z" fill="#777777"/>
</svg>
