<svg width="18" height="22" viewBox="0 0 18 22" fill="none" xmlns="http://www.w3.org/2000/svg">
<path d="M13.6123 0.247358C14.0904 0.595131 14.2672 1.22597 14.0502 1.77594L10.9004 9.70596H16.7139C17.2563 9.70596 17.7384 10.0456 17.9232 10.5592C18.108 11.0728 17.9514 11.647 17.5375 11.9948L5.96667 21.7001C5.51267 22.0802 4.86583 22.1004 4.38772 21.7526C3.90962 21.4049 3.73285 20.774 3.9498 20.2241L7.09965 12.294H1.28609C0.743705 12.294 0.261586 11.9544 0.0767736 11.4408C-0.108039 10.9272 0.0486498 10.353 0.462469 10.0052L12.0333 0.299928C12.4873 -0.080195 13.1342 -0.100414 13.6123 0.247358Z" fill="#777777"/>
</svg>
