<svg width="20" height="20" viewBox="0 0 20 20" fill="none" xmlns="http://www.w3.org/2000/svg">
<path d="M3.4375 0C2.91797 0 2.5 0.405303 2.5 0.909091C2.5 2.38258 3.41406 3.15909 4.02734 3.67803L4.07031 3.71591C4.70703 4.25758 5 4.54167 5 5.15152C5 5.6553 5.41797 6.06061 5.9375 6.06061C6.45703 6.06061 6.875 5.6553 6.875 5.15152C6.875 3.67803 5.96094 2.90152 5.34766 2.38258L5.30469 2.3447C4.66797 1.80682 4.375 1.51894 4.375 0.909091C4.375 0.405303 3.95703 0 3.4375 0ZM1.25 7.87879C0.558594 7.87879 0 8.42045 0 9.09091V16.3636C0 18.3712 1.67969 20 3.75 20H11.25C12.8828 20 14.2734 18.9886 14.7852 17.5758H15C17.7617 17.5758 20 15.4053 20 12.7273C20 10.0492 17.7617 7.87879 15 7.87879H1.25ZM15 15.1515V10.303C16.3789 10.303 17.5 11.3902 17.5 12.7273C17.5 14.0644 16.3789 15.1515 15 15.1515ZM8.75 0.909091C8.75 0.405303 8.33203 0 7.8125 0C7.29297 0 6.875 0.405303 6.875 0.909091C6.875 2.38258 7.78906 3.15909 8.40234 3.67803L8.44531 3.71591C9.08203 4.25758 9.375 4.54167 9.375 5.15152C9.375 5.6553 9.79297 6.06061 10.3125 6.06061C10.832 6.06061 11.25 5.6553 11.25 5.15152C11.25 3.67803 10.3359 2.90152 9.72266 2.38258L9.67969 2.3447C9.04297 1.80682 8.75 1.51894 8.75 0.909091Z" fill="#777777"/>
</svg>
