<svg width="16" height="21" viewBox="0 0 16 21" fill="none" xmlns="http://www.w3.org/2000/svg">
<path d="M1.67083 19.1584L1.20417 19.5275C1.07083 19.6301 0.908333 19.6875 0.741667 19.6875C0.333333 19.6875 0 19.3594 0 18.9574V7.875C0 3.52734 3.58333 0 8 0C12.4167 0 16 3.52734 16 7.875V18.9574C16 19.3594 15.6667 19.6875 15.2583 19.6875C15.0917 19.6875 14.9292 19.6301 14.7958 19.5275L14.3292 19.1584C13.7708 18.7195 12.9625 18.7893 12.4917 19.3184L11.2208 20.7539C11.0833 20.9098 10.8792 21 10.6667 21C10.4542 21 10.2542 20.9098 10.1125 20.7539L9.00417 19.5029C8.475 18.9041 7.52917 18.9041 6.99583 19.5029L5.8875 20.7539C5.75 20.9098 5.54583 21 5.33333 21C5.12083 21 4.92083 20.9098 4.77917 20.7539L3.50833 19.3184C3.0375 18.7893 2.22917 18.7195 1.67083 19.1584ZM6.66667 7.875C6.66667 7.14902 6.07083 6.5625 5.33333 6.5625C4.59583 6.5625 4 7.14902 4 7.875C4 8.60098 4.59583 9.1875 5.33333 9.1875C6.07083 9.1875 6.66667 8.60098 6.66667 7.875ZM10.6667 9.1875C11.4042 9.1875 12 8.60098 12 7.875C12 7.14902 11.4042 6.5625 10.6667 6.5625C9.92917 6.5625 9.33333 7.14902 9.33333 7.875C9.33333 8.60098 9.92917 9.1875 10.6667 9.1875Z" fill="#777777"/>
</svg>
