<svg width="21" height="21" viewBox="0 0 21 21" fill="none" xmlns="http://www.w3.org/2000/svg">
<path d="M2.625 16.2651L6.14004 7.46328C6.8373 5.71729 8.10059 4.27991 9.7166 3.39212L15.7418 0.0819236C16.2463 -0.197097 16.8287 0.28062 16.6852 0.851344L15.1594 6.87142C15.1143 7.04475 15.0938 7.22231 15.0938 7.4041C15.0938 7.67043 15.143 7.93677 15.2414 8.1862L18.375 16.2651H9.88066L10.3646 14.7685L12.0217 14.1978C12.2883 14.1048 12.4688 13.8469 12.4688 13.5552C12.4688 13.2635 12.2883 13.0056 12.0217 12.9126L10.3646 12.3419L9.81094 10.634C9.7207 10.3634 9.47051 10.1774 9.1875 10.1774C8.90449 10.1774 8.6543 10.3634 8.56406 10.6382L8.01035 12.3461L6.35332 12.9169C6.08672 13.0099 5.90625 13.2678 5.90625 13.5595C5.90625 13.8512 6.08672 14.109 6.35332 14.202L8.01035 14.7728L8.49434 16.2693H2.625V16.2651ZM11.468 5.33681C11.4229 5.1973 11.2998 5.10429 11.1562 5.10429C11.0127 5.10429 10.8896 5.1973 10.8445 5.33681L10.5697 6.19078L9.74121 6.47403C9.60586 6.52053 9.51562 6.64736 9.51562 6.79532C9.51562 6.94329 9.60586 7.07012 9.74121 7.11662L10.5697 7.39987L10.8445 8.25384C10.8896 8.39335 11.0127 8.48636 11.1562 8.48636C11.2998 8.48636 11.4229 8.39335 11.468 8.25384L11.7428 7.39987L12.5713 7.11662C12.7066 7.07012 12.7969 6.94329 12.7969 6.79532C12.7969 6.64736 12.7066 6.52053 12.5713 6.47403L11.7428 6.19078L11.468 5.33681ZM1.3125 18.2943H19.6875C20.4135 18.2943 21 18.8989 21 19.6472C21 20.3955 20.4135 21 19.6875 21H1.3125C0.586523 21 0 20.3955 0 19.6472C0 18.8989 0.586523 18.2943 1.3125 18.2943Z" fill="#777777"/>
</svg>
