<svg width="23" height="24" viewBox="0 0 23 24" fill="none" xmlns="http://www.w3.org/2000/svg">
<path d="M12.9546 1.33333C12.9546 0.595833 12.3062 0 11.5035 0C10.7009 0 10.0524 0.595833 10.0524 1.33333V3.92083L9.37222 3.29583C8.94596 2.90417 8.25669 2.90417 7.83496 3.29583C7.41324 3.6875 7.4087 4.32083 7.83496 4.70833L10.057 6.75V9.69167L7.28173 8.22083L6.47002 5.43333C6.31584 4.9 5.71726 4.58333 5.13682 4.725C4.55638 4.86667 4.20721 5.41667 4.36139 5.95L4.6108 6.80417L2.17567 5.5125C1.48186 5.14583 0.593063 5.3625 0.194011 6C-0.205042 6.6375 0.0307618 7.45417 0.724569 7.82083L3.1597 9.1125L2.23009 9.34167C1.64965 9.48333 1.30501 10.0333 1.45919 10.5667C1.61337 11.1 2.21195 11.4167 2.79239 11.275L5.8261 10.5292L8.60133 12L5.8261 13.4708L2.79239 12.725C2.21195 12.5833 1.61337 12.9 1.45919 13.4333C1.30501 13.9667 1.64965 14.5167 2.23009 14.6583L3.1597 14.8875L0.724569 16.1792C0.0307618 16.5458 -0.205042 17.3625 0.194011 18C0.593063 18.6375 1.48186 18.8583 2.17567 18.4875L4.6108 17.1958L4.36139 18.05C4.20721 18.5833 4.55185 19.1333 5.13229 19.275C5.71273 19.4167 6.31131 19.1 6.46549 18.5667L7.2772 15.7792L10.0524 14.3083V17.25L7.83043 19.2917C7.40417 19.6833 7.40417 20.3167 7.83043 20.7042C8.25669 21.0917 8.94596 21.0958 9.36769 20.7042L10.0479 20.0792V22.6667C10.0479 23.4042 10.6964 24 11.499 24C12.3016 24 12.9501 23.4042 12.9501 22.6667V20.0792L13.6303 20.7042C14.0566 21.0958 14.7458 21.0958 15.1676 20.7042C15.5893 20.3125 15.5938 19.6792 15.1676 19.2917L12.9456 17.25V14.3083L15.7208 15.7792L16.5325 18.5667C16.6867 19.1 17.2853 19.4167 17.8657 19.275C18.4461 19.1333 18.7908 18.5833 18.6366 18.05L18.3872 17.1958L20.8223 18.4875C21.5161 18.8542 22.4049 18.6375 22.804 18C23.203 17.3625 22.9672 16.5458 22.2734 16.1792L19.8383 14.8875L20.7679 14.6583C21.3483 14.5167 21.693 13.9667 21.5388 13.4333C21.3846 12.9 20.786 12.5833 20.2056 12.725L17.1719 13.4708L14.3967 12L17.1719 10.5292L20.2056 11.275C20.786 11.4167 21.3846 11.1 21.5388 10.5667C21.693 10.0333 21.3483 9.48333 20.7679 9.34167L19.8383 9.1125L22.2734 7.82083C22.9672 7.45417 23.2076 6.6375 22.804 6C22.4004 5.3625 21.5161 5.14583 20.8223 5.5125L18.3872 6.80417L18.6366 5.95C18.7908 5.41667 18.4461 4.86667 17.8657 4.725C17.2853 4.58333 16.6867 4.9 16.5325 5.43333L15.7208 8.22083L12.9456 9.69167V6.75L15.1676 4.70833C15.5938 4.31667 15.5938 3.68333 15.1676 3.29583C14.7413 2.90833 14.052 2.90417 13.6303 3.29583L12.9501 3.92083V1.33333H12.9546Z" fill="#777777"/>
</svg>
