<svg width="20" height="20" viewBox="0 0 20 20" fill="none" xmlns="http://www.w3.org/2000/svg">
<path d="M5.88635 0.0683841C6.16259 -0.0473263 6.47615 -0.0137331 6.72625 0.150501L10.0037 2.32287L13.2812 0.150501C13.5313 -0.0137331 13.8449 -0.0435937 14.1211 0.0683841C14.3973 0.180362 14.5915 0.426713 14.6512 0.717855L15.4314 4.56989L19.2837 5.35C19.5749 5.40972 19.8212 5.61128 19.9332 5.88376C20.0452 6.15624 20.0153 6.47351 19.8511 6.72359L17.6786 10.0008L19.8511 13.278C20.0153 13.5281 20.0452 13.8416 19.9332 14.1179C19.8212 14.3941 19.5749 14.5956 19.2837 14.6516L15.4276 15.428L14.6512 19.2838C14.5915 19.5749 14.3899 19.8213 14.1174 19.9332C13.8449 20.0452 13.5276 20.0154 13.2775 19.8511L10 17.6787L6.72252 19.8511C6.47242 20.0154 6.15885 20.0452 5.88262 19.9332C5.60639 19.8213 5.40481 19.5749 5.34882 19.2838L4.57237 15.428L0.716298 14.6479C0.425132 14.5882 0.178761 14.3866 0.0667744 14.1141C-0.0452123 13.8416 -0.0153492 13.5244 0.148898 13.2743L2.32144 10.0008L0.148898 6.72359C-0.0153492 6.47351 -0.0452123 6.15997 0.0667744 5.88376C0.178761 5.60755 0.425132 5.40599 0.716298 5.35L4.57237 4.57362L5.35255 0.717855C5.41228 0.426713 5.61385 0.180362 5.88635 0.0683841ZM6.98382 10.0008C6.98382 8.34354 8.32766 6.99981 9.98507 6.99981C11.6425 6.99981 12.9863 8.34354 12.9863 10.0008C12.9863 11.6581 11.6425 13.0018 9.98507 13.0018C8.32766 13.0018 6.98382 11.6581 6.98382 10.0008ZM14.7781 10.0008C14.7781 7.3544 12.6317 5.20816 9.98507 5.20816C7.33845 5.20816 5.19204 7.3544 5.19204 10.0008C5.19204 12.6472 7.33845 14.7935 9.98507 14.7935C12.6317 14.7935 14.7781 12.6472 14.7781 10.0008Z" fill="#777777"/>
</svg>
